<svg width="35" height="35" viewBox="0 0 35 35" fill="none" xmlns="http://www.w3.org/2000/svg">
<path d="M26.9792 8.75001L30.1729 15.3125C30.4754 16.2551 30.628 17.2393 30.625 18.2292C30.6261 19.701 30.284 21.1527 29.6258 22.4692C28.9676 23.7856 28.0114 24.9303 26.8333 25.8125C22.4583 29.4583 16.0417 32.0833 10.2083 32.0833C9.3964 32.0822 8.6008 31.8552 7.91056 31.4277C7.22031 31.0001 6.66266 30.3889 6.3 29.6625L3.5 24.0625M21.875 12.3958C21.875 14.4094 20.2427 16.0417 18.2292 16.0417C16.2156 16.0417 14.5833 14.4094 14.5833 12.3958C14.5833 10.3823 16.2156 8.75001 18.2292 8.75001C20.2427 8.75001 21.875 10.3823 21.875 12.3958ZM18.2292 2.91667C16.198 2.91546 14.2202 3.5667 12.5871 4.77445C10.954 5.98219 9.75205 7.68256 9.15833 9.62501C7.55417 14.1896 8.02083 15.3125 4.52083 18.4917C3.8234 19.0634 3.31971 19.8368 3.0787 20.7058C2.83769 21.5749 2.87113 22.4972 3.17446 23.3465C3.47778 24.1958 4.03616 24.9306 4.77318 25.4504C5.51019 25.9701 6.38982 26.2494 7.29167 26.25C13.125 26.25 19.5417 23.625 23.9167 19.9792C25.5083 18.7855 26.684 17.1212 27.2772 15.2222C27.8704 13.3232 27.851 11.2857 27.2219 9.39826C26.5928 7.51085 25.3857 5.86923 23.7717 4.70594C22.1578 3.54265 20.2187 2.91667 18.2292 2.91667Z" stroke="#253A17" stroke-width="2.91667" stroke-linecap="round" stroke-linejoin="round"/>
</svg>
