<svg width="380" height="400" viewBox="0 0 380 400" fill="none" xmlns="http://www.w3.org/2000/svg">
<path d="M0 0H70H380V400H0V48.3592V0Z" fill="#40862F"/>
<mask id="mask0_60_2" style="mask-type:alpha" maskUnits="userSpaceOnUse" x="0" y="0" width="380" height="400">
<path d="M0 0H70H380V400H0V48.3592V0Z" fill="#40862F"/>
</mask>
<g mask="url(#mask0_60_2)">
<path d="M95.2414 -41.0164L138.53 -3.93407C138.53 -3.93407 115.701 22.1649 100.019 33.1027C84.3381 44.0405 68.3045 72.413 49.3702 107.707C30.4359 143 -5.46284 164.158 -5.46284 164.158L-48.7514 127.076C2.75092 91.6081 -10.4157 58.6833 95.2414 -41.0164Z" fill="#253A17"/>
<path d="M472.38 107.635L512.259 148.362C512.259 148.362 454.541 204.377 420.512 230.989C386.482 257.602 337.876 313.988 279.039 383.611C220.202 453.233 145.418 507.568 145.418 507.568L105.539 466.841C169.697 416.947 239.888 350.012 259.463 314.012C279.039 278.012 472.38 107.635 472.38 107.635Z" fill="#253A17"/>
<path d="M14.6344 449.828L-22.8841 406.917C-22.8841 406.917 44.9111 348.118 84.1291 320.196C123.347 292.273 181.521 233.066 252.1 159.958C322.679 86.8501 408.379 29.8513 408.379 29.8513L445.897 72.7624C371.99 125.111 289.683 195.371 264.694 233.194C239.706 271.018 14.6344 449.828 14.6344 449.828Z" fill="#253A17"/>
<path d="M349.831 -50.8832L384.87 -5.92425C384.87 -5.92425 313.866 48.9573 273.136 74.6232C232.405 100.289 170.984 156.121 96.394 225.132C21.804 294.143 -66.9738 346.217 -66.9738 346.217L-102.012 301.258C-25.2697 253.161 60.8686 187.656 87.9508 151.302C115.033 114.948 349.831 -50.8832 349.831 -50.8832Z" fill="#253A17"/>
</g>
</svg>
