<svg width="50" height="50" viewBox="0 0 50 50" fill="none" xmlns="http://www.w3.org/2000/svg">
<path d="M8.33334 40.625V9.37499C8.33334 7.99365 8.88208 6.66889 9.85883 5.69214C10.8356 4.71539 12.1603 4.16666 13.5417 4.16666H39.5833C40.1359 4.16666 40.6658 4.38615 41.0565 4.77685C41.4472 5.16755 41.6667 5.69746 41.6667 6.24999V43.75C41.6667 44.3025 41.4472 44.8324 41.0565 45.2231C40.6658 45.6138 40.1359 45.8333 39.5833 45.8333H13.5417C12.1603 45.8333 10.8356 45.2846 9.85883 44.3078C8.88208 43.3311 8.33334 42.0063 8.33334 40.625ZM8.33334 40.625C8.33334 39.2437 8.88208 37.9189 9.85883 36.9421C10.8356 35.9654 12.1603 35.4167 13.5417 35.4167H41.6667M33.3333 17.0833C33.3225 15.8711 32.8361 14.7116 31.9789 13.8544C31.1217 12.9972 29.9622 12.5109 28.75 12.5C27.0833 12.5 25.8333 13.125 25 14.375C24.1667 13.125 22.9167 12.5 21.25 12.5C20.0378 12.5109 18.8783 12.9972 18.0211 13.8544C17.1639 14.7116 16.6775 15.8711 16.6667 17.0833C16.6667 18.3333 17.2917 19.5833 18.125 20.4167C20.3941 22.6621 22.6859 24.8844 25 27.0833C27.3037 24.9434 29.5954 22.7906 31.875 20.625C32.8094 19.6831 33.3336 18.4101 33.3333 17.0833Z" stroke="white" stroke-width="4" stroke-linecap="round" stroke-linejoin="round"/>
</svg>
