<svg width="35" height="35" viewBox="0 0 35 35" fill="none" xmlns="http://www.w3.org/2000/svg">
<path d="M8.75 16.0417H14.5833M11.6667 13.125V18.9583M21.875 17.5H21.8896M26.25 14.5833H26.2646M25.2583 7.29167H9.74166C8.29832 7.29201 6.90635 7.82743 5.83484 8.79443C4.76332 9.76143 4.08836 11.0913 3.94041 12.5271C3.93166 12.6029 3.92583 12.6744 3.91562 12.7488C3.7975 13.7317 2.91666 21.0817 2.91666 23.3333C2.91666 24.4937 3.3776 25.6065 4.19807 26.4269C5.01854 27.2474 6.13134 27.7083 7.29166 27.7083C8.75 27.7083 9.47916 26.9792 10.2083 26.25L12.2704 24.1879C12.8173 23.6409 13.559 23.3335 14.3325 23.3333H20.6675C21.441 23.3335 22.1827 23.6409 22.7296 24.1879L24.7917 26.25C25.5208 26.9792 26.25 27.7083 27.7083 27.7083C28.8687 27.7083 29.9815 27.2474 30.8019 26.4269C31.6224 25.6065 32.0833 24.4937 32.0833 23.3333C32.0833 21.0802 31.2025 13.7317 31.0844 12.7488C31.0742 12.6758 31.0683 12.6029 31.0596 12.5285C30.912 11.0925 30.2372 9.76228 29.1656 8.79497C28.0941 7.82767 26.7019 7.29205 25.2583 7.29167Z" stroke="white" stroke-width="2.91667" stroke-linecap="round" stroke-linejoin="round"/>
</svg>
