<svg width="54" height="58" viewBox="0 0 54 58" fill="none" xmlns="http://www.w3.org/2000/svg">
<path d="M26.1084 16.2637V24.1982H34.9463C36.5251 24.1982 37.8027 23.9053 38.7793 23.3193C39.7721 22.7171 40.2686 21.6592 40.2686 20.1455C40.2686 18.4691 39.6175 17.3623 38.3154 16.8252C37.1924 16.4508 35.7601 16.2637 34.0186 16.2637H26.1084ZM26.1084 30.1553V39.75H34.9463C36.5251 39.75 37.7539 39.5384 38.6328 39.1152C40.2279 38.334 41.0254 36.8366 41.0254 34.623C41.0254 32.7513 40.2523 31.4655 38.7061 30.7656C37.8434 30.375 36.6309 30.1715 35.0684 30.1553H26.1084ZM36.4111 10.0137C40.8219 10.0788 43.9469 11.3564 45.7861 13.8467C46.8929 15.3766 47.4463 17.2077 47.4463 19.3398C47.4463 21.5371 46.8929 23.3031 45.7861 24.6377C45.1676 25.3864 44.2562 26.07 43.0518 26.6885C44.891 27.3558 46.2744 28.4137 47.2021 29.8623C48.1462 31.3109 48.6182 33.0687 48.6182 35.1357C48.6182 37.2679 48.0811 39.1803 47.0068 40.873C46.3232 41.9961 45.4688 42.9401 44.4434 43.7051C43.2878 44.584 41.9206 45.1862 40.3418 45.5117C38.7793 45.8372 37.0785 46 35.2393 46H18.9307V10.0137H36.4111Z" fill="#40862F"/>
<path d="M26.8828 21.2344C26.3359 18.875 25 17.2266 22.875 16.2891C21.6875 15.7734 20.3672 15.5156 18.9141 15.5156C16.1328 15.5156 13.8438 16.5703 12.0469 18.6797C10.2656 20.7734 9.375 23.9297 9.375 28.1484C9.375 32.3984 10.3438 35.4062 12.2812 37.1719C14.2188 38.9375 16.4219 39.8203 18.8906 39.8203C21.3125 39.8203 23.2969 39.125 24.8438 37.7344C26.3906 36.3281 27.3438 34.4922 27.7031 32.2266H19.7109V26.4609H34.1016V45H29.3203L28.5938 40.6875C27.2031 42.3281 25.9531 43.4844 24.8438 44.1562C22.9375 45.3281 20.5938 45.9141 17.8125 45.9141C13.2344 45.9141 9.48438 44.3281 6.5625 41.1562C3.51562 37.9688 1.99219 33.6094 1.99219 28.0781C1.99219 22.4844 3.53125 18 6.60938 14.625C9.6875 11.25 13.7578 9.5625 18.8203 9.5625C23.2109 9.5625 26.7344 10.6797 29.3906 12.9141C32.0625 15.1328 33.5938 17.9062 33.9844 21.2344H26.8828Z" fill="#E00D0D"/>
<path d="M19.5167 43.4198C19.0759 44.4326 17.8016 44.8546 17.8016 44.8546C17.8016 44.8546 17.2421 43.6345 17.6829 42.6217C18.1237 41.6089 18.4388 41.3148 19.1984 41.6454C19.958 41.976 19.9158 42.5029 19.5167 43.4198Z" fill="black"/>
<path d="M28.6437 37.9343C28.4486 39.0215 27.3062 39.7262 27.3062 39.7262C27.3062 39.7262 26.4801 38.6682 26.6752 37.581C26.8703 36.4938 27.1091 36.1349 27.9245 36.2812C28.7399 36.4276 28.8204 36.95 28.6437 37.9343Z" fill="black"/>
<path d="M23.4077 29.0346C24.3848 28.5195 25.6433 28.9865 25.6433 28.9865C25.6433 28.9865 25.3175 30.2887 24.3404 30.8038C23.3633 31.3189 22.9335 31.3516 22.5472 30.6188C22.1608 29.8859 22.5231 29.501 23.4077 29.0346Z" fill="black"/>
<path d="M28.8238 18.6446C27.8166 18.1913 27.4104 16.9119 27.4104 16.9119C27.4104 16.9119 28.6373 16.3675 29.6446 16.8208C30.6519 17.274 30.942 17.5928 30.6021 18.3482C30.2621 19.1037 29.7357 19.055 28.8238 18.6446Z" fill="black"/>
<path d="M6.29913 24.4571C6.56158 25.53 5.80297 26.6374 5.80297 26.6374C5.80297 26.6374 4.61885 26.0052 4.3564 24.9323C4.09396 23.8593 4.16666 23.4345 4.97136 23.2376C5.77607 23.0408 6.06153 23.4857 6.29913 24.4571Z" fill="black"/>
<path d="M11.9293 13.57C12.6136 12.7029 13.9533 12.6195 13.9533 12.6195C13.9533 12.6195 14.1835 13.942 13.4992 14.809C12.8149 15.6761 12.4353 15.8802 11.785 15.367C11.1347 14.8537 11.3098 14.3549 11.9293 13.57Z" fill="black"/>
<path d="M9.37492 38.8588C10.2805 39.4913 10.4421 40.8238 10.4421 40.8238C10.4421 40.8238 9.13538 41.131 8.22979 40.4986C7.3242 39.8661 7.09824 39.499 7.57257 38.8199C8.0469 38.1407 8.55506 38.2863 9.37492 38.8588Z" fill="black"/>
</svg>
