<svg width="50" height="50" viewBox="0 0 50 50" fill="none" xmlns="http://www.w3.org/2000/svg">
<path d="M16.6667 6.25H14.5833C13.4783 6.25 12.4185 6.68899 11.6371 7.47039C10.8557 8.25179 10.4167 9.3116 10.4167 10.4167V20.8333C10.4167 21.9384 9.97768 22.9982 9.19628 23.7796C8.41488 24.561 7.35507 25 6.25 25C7.35507 25 8.41488 25.439 9.19628 26.2204C9.97768 27.0018 10.4167 28.0616 10.4167 29.1667V39.5833C10.4167 41.875 12.2917 43.75 14.5833 43.75H16.6667M33.3333 43.75H35.4167C36.5217 43.75 37.5815 43.311 38.3629 42.5296C39.1443 41.7482 39.5833 40.6884 39.5833 39.5833V29.1667C39.5833 26.875 41.4583 25 43.75 25C42.6449 25 41.5851 24.561 40.8037 23.7796C40.0223 22.9982 39.5833 21.9384 39.5833 20.8333V10.4167C39.5833 9.3116 39.1443 8.25179 38.3629 7.47039C37.5815 6.68899 36.5217 6.25 35.4167 6.25H33.3333" stroke="white" stroke-width="4" stroke-linecap="round" stroke-linejoin="round"/>
</svg>
