<svg width="492" height="573" viewBox="0 0 492 573" fill="none" xmlns="http://www.w3.org/2000/svg">
<path d="M0 50C0 22.3857 22.3858 0 50 0H299.034H353.566H368.357C390.961 0 409.286 18.3243 409.286 40.9286V40.9286C409.286 63.5328 427.61 81.8571 450.214 81.8571V81.8571C472.819 81.8571 491.143 100.181 491.143 122.786V523C491.143 550.614 468.757 573 441.143 573H131.857C104.243 573 81.8571 550.614 81.8571 523V512.489V448.373C81.8571 426.786 64.3573 409.286 42.7701 409.286V409.286V409.286C19.1488 409.286 0 390.137 0 366.516V50Z" fill="#D9D9D9"/>
</svg>
