<svg width="59" height="59" viewBox="0 0 59 59" fill="none" xmlns="http://www.w3.org/2000/svg">
<g clip-path="url(#clip0_11_47)">
<path d="M26.4963 37.3598C26.1938 36.6794 25.7145 36.0925 25.1083 35.6602C24.5021 35.2278 23.7912 34.9658 23.0494 34.9014L9.89939 33.7607C9.6741 33.7357 9.46313 33.6379 9.29849 33.482C9.13385 33.3262 9.02453 33.121 8.98711 32.8974C8.94969 32.6739 8.98621 32.4442 9.09114 32.2433C9.19607 32.0423 9.36368 31.8811 9.56853 31.7841L21.63 26.4214C22.3101 26.1192 22.8969 25.6402 23.3293 25.0344C23.7617 24.4286 24.024 23.718 24.0888 22.9766L25.2294 9.82658C25.2536 9.60055 25.3512 9.38867 25.5072 9.22327C25.6631 9.05786 25.8689 8.94802 26.0931 8.91049C26.3173 8.87296 26.5477 8.9098 26.749 9.01541C26.9503 9.12101 27.1115 9.28958 27.2081 9.49538L32.5666 21.5575C32.8691 22.2379 33.3484 22.8248 33.9546 23.2572C34.5608 23.6895 35.2718 23.9515 36.0135 24.016L49.1632 25.1545C49.39 25.178 49.6028 25.2753 49.7689 25.4314C49.9351 25.5875 50.0455 25.7938 50.0831 26.0187C50.1208 26.2435 50.0836 26.4745 49.9773 26.6762C49.871 26.8779 49.7015 27.0392 49.4947 27.1353L37.4326 32.4938C36.7522 32.7963 36.1653 33.2756 35.733 33.8818C35.3006 34.488 35.0386 35.199 34.9742 35.9407L33.8335 49.0907C33.8093 49.3168 33.7117 49.5286 33.5558 49.694C33.3998 49.8594 33.194 49.9693 32.9698 50.0068C32.7456 50.0444 32.5153 50.0075 32.3139 49.9019C32.1126 49.7963 31.9514 49.6277 31.8548 49.4219L26.4963 37.3598Z" fill="white"/>
<path d="M42.8741 8.21448L44.2498 16.4335L42.8741 8.21448Z" fill="white"/>
<path d="M47.6714 11.6361L39.4524 13.0118L47.6714 11.6361Z" fill="white"/>
<path d="M14.8131 42.4838L15.501 46.5933L14.8131 42.4838Z" fill="white"/>
<path d="M17.2118 44.1946L13.1023 44.8825L17.2118 44.1946Z" fill="white"/>
<path d="M42.8741 8.21448L44.2498 16.4335M47.6714 11.6361L39.4524 13.0118M14.8131 42.4838L15.501 46.5933M17.2118 44.1947L13.1023 44.8825M26.4963 37.3598C26.1938 36.6794 25.7145 36.0925 25.1083 35.6602C24.5021 35.2278 23.7912 34.9658 23.0494 34.9014L9.89939 33.7607C9.6741 33.7357 9.46313 33.6379 9.29849 33.482C9.13385 33.3262 9.02453 33.121 8.98711 32.8974C8.94969 32.6739 8.98621 32.4442 9.09114 32.2433C9.19607 32.0423 9.36368 31.8811 9.56853 31.7841L21.63 26.4214C22.3101 26.1192 22.8969 25.6402 23.3293 25.0344C23.7617 24.4286 24.024 23.718 24.0888 22.9766L25.2294 9.82658C25.2536 9.60055 25.3512 9.38867 25.5072 9.22327C25.6631 9.05786 25.8689 8.94802 26.0931 8.91049C26.3173 8.87296 26.5476 8.90981 26.749 9.01541C26.9503 9.12101 27.1115 9.28958 27.2081 9.49538L32.5666 21.5575C32.8691 22.2379 33.3484 22.8248 33.9546 23.2572C34.5608 23.6895 35.2718 23.9515 36.0135 24.016L49.1632 25.1545C49.39 25.178 49.6028 25.2753 49.7689 25.4314C49.9351 25.5875 50.0455 25.7938 50.0831 26.0187C50.1208 26.2435 50.0836 26.4745 49.9773 26.6762C49.871 26.8779 49.7015 27.0392 49.4947 27.1353L37.4326 32.4938C36.7522 32.7963 36.1653 33.2756 35.733 33.8818C35.3006 34.488 35.0386 35.199 34.9742 35.9407L33.8335 49.0907C33.8093 49.3168 33.7117 49.5286 33.5558 49.694C33.3998 49.8594 33.194 49.9693 32.9698 50.0068C32.7456 50.0444 32.5153 50.0075 32.3139 49.9019C32.1126 49.7963 31.9514 49.6277 31.8548 49.4219L26.4963 37.3598Z" stroke="white" stroke-width="2" stroke-linecap="round" stroke-linejoin="round"/>
</g>
<defs>
<clipPath id="clip0_11_47">
<rect width="50" height="50" fill="white" transform="translate(0.747314 8.92883) rotate(-9.50224)"/>
</clipPath>
</defs>
</svg>
